<svg xmlns="http://www.w3.org/2000/svg" viewBox="0 0 512 512"><!--
  Composto: car-rear (FA 6.7.2) + gear (FA 6.7.2)
  License: CC BY 4.0 — https://fontawesome.com/license/free
-->
  <!-- Carro traseiro: escalonado para caber nos 2/3 superiores -->
  <g transform="translate(0,-30) scale(0.82)">
    <path d="M165.4 96l181.2 0c13.6 0 25.7 8.6 30.2 21.4L402.9 192l-293.8 0 26.1-74.6c4.5-12.8 16.6-21.4 30.2-21.4zm-90.6 .3L39.6 196.8C16.4 206.4 0 229.3 0 256l0 80c0 23.7 12.9 44.4 32 55.4L32 448c0 17.7 14.3 32 32 32l32 0c17.7 0 32-14.3 32-32l0-48 256 0 0 48c0 17.7 14.3 32 32 32l32 0c17.7 0 32-14.3 32-32l0-56.6c19.1-11.1 32-31.7 32-55.4l0-80c0-26.7-16.4-49.6-39.6-59.2L437.2 96.3C423.7 57.8 387.4 32 346.6 32L165.4 32c-40.8 0-77.1 25.8-90.6 64.3zM208 272l96 0c8.8 0 16 7.2 16 16l0 32c0 8.8-7.2 16-16 16l-96 0c-8.8 0-16-7.2-16-16l0-32c0-8.8 7.2-16 16-16zM48 280c0-13.3 10.7-24 24-24l32 0c13.3 0 24 10.7 24 24s-10.7 24-24 24l-32 0c-13.3 0-24-10.7-24-24zm360-24l32 0c13.3 0 24 10.7 24 24s-10.7 24-24 24l-32 0c-13.3 0-24-10.7-24-24s10.7-24 24-24z"/>
  </g>
  <!-- Engrenagem: badge no canto inferior direito -->
  <g transform="translate(290,290) scale(0.43)">
    <!-- disco branco de fundo para destacar a engrenagem sobre o carro -->
    <circle cx="256" cy="256" r="280" fill="white"/>
    <path d="M495.9 166.6c3.2 8.7 .5 18.4-6.4 24.6l-43.3 39.4c1.1 8.3 1.7 16.8 1.7 25.4s-.6 17.1-1.7 25.4l43.3 39.4c6.9 6.2 9.6 15.9 6.4 24.6c-4.4 11.9-9.7 23.3-15.8 34.3l-4.7 8.1c-6.6 11-14 21.4-22.1 31.2c-5.9 7.2-15.7 9.6-24.5 6.8l-55.7-17.7c-13.4 10.3-28.2 18.9-44 25.4l-12.5 57.1c-2 9.1-9 16.3-18.2 17.8c-13.8 2.3-28 3.5-42.5 3.5s-28.7-1.2-42.5-3.5c-9.2-1.5-16.2-8.7-18.2-17.8l-12.5-57.1c-15.8-6.5-30.6-15.1-44-25.4L83.1 425.9c-8.8 2.8-18.6 .3-24.5-6.8c-8.1-9.8-15.5-20.2-22.1-31.2l-4.7-8.1c-6.1-11-11.4-22.4-15.8-34.3c-3.2-8.7-.5-18.4 6.4-24.6l43.3-39.4C64.6 273.1 64 264.6 64 256s.6-17.1 1.7-25.4L22.4 191.2c-6.9-6.2-9.6-15.9-6.4-24.6c4.4-11.9 9.7-23.3 15.8-34.3l4.7-8.1c6.6-11 14-21.4 22.1-31.2c5.9-7.2 15.7-9.6 24.5-6.8l55.7 17.7c13.4-10.3 28.2-18.9 44-25.4l12.5-57.1c2-9.1 9-16.3 18.2-17.8C227.3 1.2 241.5 0 256 0s28.7 1.2 42.5 3.5c9.2 1.5 16.2 8.7 18.2 17.8l12.5 57.1c15.8 6.5 30.6 15.1 44 25.4l55.7-17.7c8.8-2.8 18.6-.3 24.5 6.8c8.1 9.8 15.5 20.2 22.1 31.2l4.7 8.1c6.1 11 11.4 22.4 15.8 34.3zM256 336a80 80 0 1 0 0-160 80 80 0 1 0 0 160z"/>
  </g>
</svg>
